<svg width="1025" height="228" viewBox="0 0 1025 228" fill="none" xmlns="http://www.w3.org/2000/svg">
<rect x="55.4844" y="73.0938" width="27.1431" height="27.1431" fill="white"/>
<rect x="82" y="100" width="27.1431" height="27.1431" fill="white"/>
<rect x="136.906" y="154.516" width="27.1431" height="27.1431" transform="rotate(-180 136.906 154.516)" fill="white"/>
<rect x="109.758" y="73.0938" width="27.1431" height="27.1431" fill="white"/>
<rect x="137" y="100" width="54" height="27" fill="white"/>
<rect y="100" width="55" height="27" fill="white"/>
<rect x="82.625" y="154.516" width="27.1431" height="27.1431" transform="rotate(-180 82.625 154.516)" fill="white"/>
<rect x="83" y="19" width="27" height="54" fill="white"/>
<rect x="110" y="209" width="27" height="54" transform="rotate(-180 110 209)" fill="white"/>
<rect x="28.3359" y="45.9453" width="27.1431" height="27.1431" fill="white"/>
<rect x="164.047" y="181.656" width="27.1431" height="27.1431" transform="rotate(-180 164.047 181.656)" fill="white"/>
<rect x="136.906" y="45.9453" width="27.1431" height="27.1431" fill="white"/>
<rect x="55.4844" y="181.656" width="27.1431" height="27.1431" transform="rotate(-180 55.4844 181.656)" fill="white"/>
<path d="M312.841 183.975C300.384 183.975 289.497 181.392 280.18 176.227C270.964 170.961 263.824 163.568 258.761 154.048C253.697 144.529 251.165 133.338 251.165 120.476C251.165 107.614 253.697 96.4741 258.761 87.0556C263.824 77.5359 270.964 70.1935 280.18 65.0285C289.497 59.7623 300.384 57.1292 312.841 57.1292C322.361 57.1292 330.766 58.6989 338.058 61.8384C345.451 64.8766 351.528 69.3833 356.287 75.3585C361.047 81.2324 364.288 88.3722 366.01 96.7779H348.388C346.565 88.9798 342.565 82.954 336.387 78.7005C330.311 74.447 322.462 72.3203 312.841 72.3203C298.966 72.3203 288.079 76.6244 280.18 85.2327C272.281 93.841 268.331 105.589 268.331 120.476C268.331 135.465 272.281 147.263 280.18 155.871C288.079 164.378 298.966 168.632 312.841 168.632C322.462 168.632 330.311 166.556 336.387 162.403C342.565 158.15 346.565 152.124 348.388 144.326H366.01C364.288 152.631 361.047 159.77 356.287 165.746C351.528 171.619 345.451 176.126 338.058 179.266C330.766 182.405 322.361 183.975 312.841 183.975ZM423.589 183.823C414.17 183.823 405.916 181.899 398.827 178.05C391.839 174.101 386.421 168.581 382.573 161.492C378.724 154.403 376.8 146.048 376.8 136.427C376.8 126.806 378.724 118.451 382.573 111.361C386.421 104.272 391.839 98.8034 398.827 94.955C405.916 91.0053 414.17 89.0305 423.589 89.0305C433.311 89.0305 441.616 90.9547 448.502 94.8031C455.49 98.6515 460.858 104.12 464.605 111.209C468.453 118.299 470.377 126.704 470.377 136.427C470.377 146.048 468.453 154.453 464.605 161.644C460.858 168.733 455.49 174.202 448.502 178.05C441.514 181.899 433.21 183.823 423.589 183.823ZM423.589 168.936C433.007 168.936 440.299 166.1 445.464 160.429C450.73 154.656 453.363 146.655 453.363 136.427C453.363 126.097 450.73 118.096 445.464 112.425C440.299 106.753 433.007 103.918 423.589 103.918C414.272 103.918 406.98 106.804 401.714 112.577C396.447 118.248 393.814 126.198 393.814 136.427C393.814 146.655 396.447 154.656 401.714 160.429C406.98 166.1 414.272 168.936 423.589 168.936ZM490.757 182V54.3948H507.771V182H490.757ZM574.906 183.823C565.488 183.823 557.234 181.899 550.145 178.05C543.157 174.101 537.739 168.581 533.89 161.492C530.042 154.403 528.118 146.048 528.118 136.427C528.118 126.806 530.042 118.451 533.89 111.361C537.739 104.272 543.157 98.8034 550.145 94.955C557.234 91.0053 565.488 89.0305 574.906 89.0305C584.629 89.0305 592.933 90.9547 599.82 94.8031C606.808 98.6515 612.175 104.12 615.922 111.209C619.771 118.299 621.695 126.704 621.695 136.427C621.695 146.048 619.771 154.453 615.922 161.644C612.175 168.733 606.808 174.202 599.82 178.05C592.832 181.899 584.527 183.823 574.906 183.823ZM574.906 168.936C584.325 168.936 591.617 166.1 596.781 160.429C602.048 154.656 604.681 146.655 604.681 136.427C604.681 126.097 602.048 118.096 596.781 112.425C591.617 106.753 584.325 103.918 574.906 103.918C565.589 103.918 558.297 106.804 553.031 112.577C547.765 118.248 545.132 126.198 545.132 136.427C545.132 146.655 547.765 154.656 553.031 160.429C558.297 166.1 565.589 168.936 574.906 168.936ZM646.784 182V108.475H637.973V90.8534H656.202V107.867H662.583C665.115 102.297 669.014 97.9426 674.28 94.8031C679.647 91.6636 685.926 90.0938 693.117 90.0938H700.56V104.677H692.205C683.091 104.677 676.052 107.361 671.09 112.729C666.127 118.096 663.646 125.337 663.646 134.452V182H646.784ZM719.2 182V58.9521H736.67V167.113H803.663V182H719.2ZM846.224 183.671C835.894 183.671 827.742 181.139 821.766 176.075C815.893 170.91 812.956 164.176 812.956 155.871C812.956 147.162 815.893 140.427 821.766 135.667C827.64 130.806 836.097 128.375 847.136 128.375H878.277V124.274C878.277 110.197 870.53 103.158 855.035 103.158C842.376 103.158 834.729 107.918 832.096 117.438H814.93C816.45 108.424 820.754 101.437 827.843 96.4741C835.033 91.5117 844.199 89.0305 855.339 89.0305C867.998 89.0305 877.67 92.0181 884.354 97.9932C891.139 103.968 894.532 112.577 894.532 123.818V164.378H902.735V182H884.506V168.024H878.125C874.986 172.885 870.682 176.734 865.213 179.569C859.744 182.304 853.415 183.671 846.224 183.671ZM848.503 169.999C853.972 169.999 858.985 168.885 863.542 166.657C868.099 164.429 871.695 161.391 874.328 157.542C876.961 153.694 878.277 149.491 878.277 144.934V140.832H848.199C835.438 140.832 829.058 145.592 829.058 155.112C829.058 159.669 830.78 163.315 834.223 166.049C837.666 168.682 842.426 169.999 848.503 169.999ZM973.834 183.823C966.542 183.823 960.263 182.506 954.997 179.873C949.731 177.139 945.579 173.189 942.54 168.024H936.16V182H917.931V164.378H926.742V54.3948H943.756V105.589H944.363C947.098 100.221 951.149 96.1196 956.516 93.284C961.884 90.4483 968.163 89.0305 975.353 89.0305C983.961 89.0305 991.354 90.9547 997.532 94.8031C1003.81 98.6515 1008.62 104.12 1011.96 111.209C1015.31 118.299 1016.98 126.704 1016.98 136.427C1016.98 146.149 1015.26 154.555 1011.81 161.644C1008.47 168.733 1003.61 174.202 997.228 178.05C990.848 181.899 983.05 183.823 973.834 183.823ZM971.252 169.239C980.366 169.239 987.405 166.353 992.367 160.581C997.431 154.808 999.963 146.757 999.963 136.427C999.963 126.097 997.431 118.045 992.367 112.273C987.405 106.5 980.366 103.614 971.252 103.614C962.947 103.614 956.263 105.994 951.199 110.754C946.237 115.514 943.756 121.843 943.756 129.743V143.111C943.756 151.01 946.237 157.34 951.199 162.1C956.263 166.86 962.947 169.239 971.252 169.239Z" fill="white"/>
</svg>
